<svg xmlns="http://www.w3.org/2000/svg" xmlns:xlink="http://www.w3.org/1999/xlink" viewBox="0 0 683 768"><defs><style>.ef150607-c3ed-4cd5-b880-9d7d9770e95a{fill:#8cc63f;}.b4d670b9-0e0c-451e-83d5-b5436b997359{fill:url(#e49e787c-ef3c-434c-bdd3-c9efd2f5e554);}.fb5f80f8-aa0e-47f2-bc3c-510548530f91{fill:url(#fc97eb4d-f017-4cc9-8d51-f3214f70d14e);}.b91659d5-7fcc-488c-ad48-9f7fe33a5c6e{fill:#045c88;}.f312f583-1b6f-4f31-8fd3-0cfd6b3e9fe3{fill:#d4e862;}.bbbeb2fd-1291-43af-97ba-cd00c74715d5{fill:#111110;}.e2c9de15-c132-4103-8b62-0c31f81607e3{fill:#fec402;}.b83c16a5-8402-420e-b51a-eae632859b49{fill:#c4d674;}.ac013350-a80c-4901-82fd-0560054290f8{fill:#fbf7f2;}.ebaaf00a-e3d1-4f48-b28a-71fd9e23f4a2{fill:#fbf6f2;}.ab222a6e-c074-42ab-90c5-25c9553e249a{fill:#fed4b2;}.bbbf38da-6c5e-4660-bf77-a2a79ffebefa{fill:#feb889;}.ac1e52ca-bb78-423b-82f5-82f707fbbb30{fill:#feb98a;}.b27dd22e-763a-4e45-a7c3-5095b0bb880f{fill:#e5bfa0;}.f4c8ba02-b348-4411-b293-3cdc5395a960{fill:#feb88a;}.a5645840-7490-4bb2-a844-93e4887a8919{fill:#775436;}.a03c1018-e8a1-45b6-9b69-646bd152dbd1{fill:#775437;}.b8216bd2-dde4-4ca2-8905-4e0a6294dd40{fill:#ff1d48;}.af53cd86-b7a1-4aa2-88bd-5ab394ba867f{fill:#9e9ee5;}.a228cf7b-5b7d-41b1-add5-c404526390cc{fill:#2b5b66;}</style><radialGradient id="e49e787c-ef3c-434c-bdd3-c9efd2f5e554" cx="373.65" cy="515.45" r="266.52" gradientTransform="translate(-58.2 -114.34) scale(0.66 0.79)" gradientUnits="userSpaceOnUse"><stop offset="0.07" stop-color="#fff" stop-opacity="0.6"/><stop offset="0.59" stop-color="#fcef29" stop-opacity="0.5"/><stop offset="1" stop-color="#fff" stop-opacity="0.2"/></radialGradient><radialGradient id="fc97eb4d-f017-4cc9-8d51-f3214f70d14e" cx="835.26" cy="522.58" r="266.52" xlink:href="#e49e787c-ef3c-434c-bdd3-c9efd2f5e554"/></defs><title>healthy</title><g id="a6a4ea71-c5d3-49ec-98f7-2f27b4fb2678" data-name="圖層 7"><rect class="ef150607-c3ed-4cd5-b880-9d7d9770e95a" x="46" y="509.17" width="601.95" height="190.07" rx="15.28"/></g><g id="f12e5da1-62b5-4293-92ce-23e4b4adbd95" data-name="圖層 3"><ellipse class="b4d670b9-0e0c-451e-83d5-b5436b997359" cx="187.64" cy="292.67" rx="177.64" ry="207.67"/><ellipse class="fb5f80f8-aa0e-47f2-bc3c-510548530f91" cx="491.36" cy="298.3" rx="177.64" ry="207.67"/></g><g id="f9bc36c7-245d-4fa3-83fb-0c00cb9aa01b" data-name="圖層 4"><rect class="b91659d5-7fcc-488c-ad48-9f7fe33a5c6e" x="152.75" y="404.6" width="29.8" height="195.7" rx="14.9"/><rect class="b91659d5-7fcc-488c-ad48-9f7fe33a5c6e" x="192.86" y="404.6" width="29.8" height="195.7" rx="14.9"/><rect class="b91659d5-7fcc-488c-ad48-9f7fe33a5c6e" x="151.6" y="404.6" width="72.2" height="60.54" rx="15.01"/><rect class="f312f583-1b6f-4f31-8fd3-0cfd6b3e9fe3" x="150.46" y="259.58" width="77.93" height="152.06" rx="15.24"/><path class="f312f583-1b6f-4f31-8fd3-0cfd6b3e9fe3" d="M210,263.53c6.88,6.54,13.9,12.92,16.74,23.76a55.16,55.16,0,0,1,1.69,14.37q-.08,50.59,0,101.19c0,3.19.31,6.51-2.64,8.26a5.45,5.45,0,0,1-4.29,1.53c-16.47,0-32.94.08-49.4,0a6.37,6.37,0,0,1-3.13-.69c-2.36-1.7-3.22-4.53-3.25-7.58-.17-18.08-.54-36.16.17-54.22,1.36-4.43,2.9-1.74,4.17,0,4.2,5.69,8.74,11,13.15,16.39,4,4.9,4.34,4.78,8.58.46,5.76-5.86,11.27-12,15.72-19.45a13.43,13.43,0,0,0,.63-12.71,9.76,9.76,0,0,0-8.6-6.36c-3.25-.29-5.87,1.71-8.11,4.43s-4.41,2.81-6.71,0c-4.43-5.39-9.28-5.75-14.5-1.68-1.08.84-2.27,2.21-3.67.51-1.61-7.39-14.51-22.45-13.77-29.89C160,295,177.06,282.88,178,272.25c.13-1.47-.72,7.19.63,6.55,2-.27,3.31,1.65,4.87,2.69,6,4.05,13.52-.73,14.31-9.17.35-3.69-.43-7.49.78-11.1a3.83,3.83,0,0,1,3-2.19C204.78,259.45,207.8,260.33,210,263.53Z"/><path class="f312f583-1b6f-4f31-8fd3-0cfd6b3e9fe3" d="M166.92,402.54c.1-18.2.06-36.41.07-54.61a87.51,87.51,0,0,1,.75-15.69c-1.69-7.81-.35-15.77-.77-23.64-4-5.42-7.58-11.07-8.52-18.72a113.06,113.06,0,0,1-1.29-15.07c0-.92.09-1.89.06-2.84-.78,1-1.56,1.93-2.35,2.89a4.78,4.78,0,0,1-.75,1.78,39.1,39.1,0,0,0-5.36,12.8,71.16,71.16,0,0,0-1,8.32q-.12,53.43-.09,106.88c0,2.78.34,5.24,2.73,6.45a14,14,0,0,0,5.67,1.24c4.23.2,8.65,1.73,12.7-1.26A19.08,19.08,0,0,1,166.92,402.54Z"/><path class="bbbeb2fd-1291-43af-97ba-cd00c74715d5" d="M189.71,133.37c12.7,3.51,24.11,9.23,31.71,21.73,3.2,5.27,4.79,11.2,6.45,17.12a2.17,2.17,0,0,1-.21,3.29,9.82,9.82,0,0,1-5.74,1.34c-22.8.07-45.61.12-68.41,0a14.39,14.39,0,0,1-3.52-.45c-4.58-1.6-4.59-5.31-3.58-9.45,4.29-17.53,20.77-32.46,37.63-34.06Z"/><path class="e2c9de15-c132-4103-8b62-0c31f81607e3" d="M106.07,306c-1.5-.26-2.36-1.62-2.94-3.17-4.22-11.39-11-19.56-20.17-25-4.08-2.42-4.06-5.44.05-7.89,9-5.38,15.63-13.4,20-24.52,2-5.2,4.54-5.1,6.67.25,4.33,10.88,10.8,18.83,19.68,24.13,4.32,2.57,4.31,5.66,0,8.23-8.88,5.29-15.47,13.17-19.64,24.16C109,304,108.15,305.92,106.07,306Z"/><path class="e2c9de15-c132-4103-8b62-0c31f81607e3" d="M280.93,112.92c1.6.25,2.43,1.61,3.07,3.12a34.52,34.52,0,0,0,12.66,15.7c3.73,2.55,3.75,5.24.06,7.76A36.26,36.26,0,0,0,284,155.13c-2,4.52-4.21,4.46-6.27-.17a35.61,35.61,0,0,0-12.78-15.56c-3.46-2.34-3.49-5.17-.06-7.47a34.77,34.77,0,0,0,13-16.05C278.52,114.35,279.41,113.06,280.93,112.92Z"/><path class="e2c9de15-c132-4103-8b62-0c31f81607e3" d="M295.74,339.16a4.5,4.5,0,0,1-2.4,3.8c-4.45,2.9-7.7,7.15-10.25,12.47-2,4.23-4,4.2-6.07-.07a31.65,31.65,0,0,0-9.84-12.21c-3.68-2.7-3.75-5.22-.15-7.83a30.91,30.91,0,0,0,9.9-12.13c2-4.22,4.17-4.3,6.12-.28,2.66,5.46,6.05,9.83,10.64,12.79A4,4,0,0,1,295.74,339.16Z"/><path class="b83c16a5-8402-420e-b51a-eae632859b49" d="M169.7,412.4l-15.58-.06c-1.24-.35-2.7.25-3.69-1.25l18.37,0,57,0a6.17,6.17,0,0,1-.2.85l-49.45.29C174,412.27,171.84,412.35,169.7,412.4Z"/><path class="ac013350-a80c-4901-82fd-0560054290f8" d="M233,157.64l-1,.05c-1.58.33-2.36-.73-2.77-2.42,0-.7,0-1.41,0-2.12A9.9,9.9,0,0,1,233,157.64Z"/><path class="ebaaf00a-e3d1-4f48-b28a-71fd9e23f4a2" d="M146.72,155.31l-2.52,2.39-1.09-.06C145.45,153.71,145.59,153.63,146.72,155.31Z"/><path class="ab222a6e-c074-42ab-90c5-25c9553e249a" d="M229.39,178c-.55,4.31.8,6.07,4.45,5.6,1.84-.24,3.93-.81,5.62,1-1.39,1.92-3.3,1.7-5.08,1.73-2.74.06-3.71,1.78-3.7,4.93,0,5.22.15,10.44-.05,15.64-.17,4.29.89,6.81,4.7,6.81a2.75,2.75,0,0,1,2.34,1.49,2.85,2.85,0,0,1-3,.93c-4.32-1-5.69,1.91-6.68,6.47-3.79,17.49-12.65,29.83-26,37.36l-2.89,1.31c-2.3,3.18-5.24,2.8-8.22,2.23-18.59-5.88-29-21.38-33.78-43.46-.87-4.05-.57-8.19-.58-12.29,0-8-.07-16.09,0-24.14.06-3.59,1.12-5.78,4.43-5.12,2.51.5,4.78-.45,7-1.9,8.84-1,17.7-.35,26.56-.47,9.46-.12,18.94-.07,28.41,0C225.15,176.16,227.55,175.7,229.39,178Z"/><path class="bbbf38da-6c5e-4660-bf77-a2a79ffebefa" d="M190.81,262.4a19.09,19.09,0,0,0,8.28-1.12c0,1.87-.14,3.75,0,5.6.61,7.34-1,13.11-6.79,16.65s-9.51-.44-13.48-4.32c-.39-6,.76-12.06-.77-18,2.67-1.52,5.34-.44,7.88.36A15.79,15.79,0,0,0,190.81,262.4Z"/><path class="ac1e52ca-bb78-423b-82f5-82f707fbbb30" d="M237.67,215.21c-8.34-.42-8.34-.42-8.34-10.53,0-4.86.25-9.74-.07-14.57s1.29-6,4.73-5.51a38.4,38.4,0,0,0,5.47,0c6.88,3.07,9.75,8.39,9.18,17C248.18,208.73,244.24,213.6,237.67,215.21Z"/><path class="b27dd22e-763a-4e45-a7c3-5095b0bb880f" d="M165.1,177.92l1.71.36a6.23,6.23,0,0,1-1.68.71c-7.35.65-7.36.64-7.35,9.49,0,7.86-.07,15.72,0,23.58.15,12.25,4.28,22.53,10.24,32.11s14,14.4,22.77,18.23c-4.39,2.1-8.51-.44-12.74-1.15a40.59,40.59,0,0,1-17.7-12.92,8.68,8.68,0,0,0-2.31-1.53c-2.1-4.3-4.22-8.58-6.31-12.89a36.92,36.92,0,0,1-3.53-12.06c-.5-4.54-2-6.7-5.85-5.81a2.92,2.92,0,0,1-3-.83c6.09-1.59,6.4-6.89,6.18-13.21-.21-6.05-.72-12.2.38-18.24,1.39-1.66.64-3.8.84-5.72Z"/><path class="f4c8ba02-b348-4411-b293-3cdc5395a960" d="M145.91,183.76c1.88,9.71.52,19.56.75,29.35,0,1.67-1.2,1.91-2.31,1.95-1.67.06-3.33.1-5,.14-7.32-.82-11.83-6.53-11.94-15.1-.1-8.76,4.86-15.55,12.13-16.39A50.19,50.19,0,0,1,145.91,183.76Z"/><path class="a5645840-7490-4bb2-a844-93e4887a8919" d="M187.9,251.21a20.78,20.78,0,0,1-15.35-7.31c-3.29-3.66-3.85-8.27-1.57-11.93,2.41-3.88,6.05-4.74,9.66-1.42,5.18,4.76,9.85,4.56,15-.13,3.55-3.24,7.37-2.31,9.59,1.76,2.34,4.28,1.48,8.19-1.46,11.51A20.88,20.88,0,0,1,187.9,251.21Z"/><path class="a5645840-7490-4bb2-a844-93e4887a8919" d="M180.59,211.78c0-2.43-.16-4.89,0-7.3.35-4.38,2.7-6.75,6-7.19s6,1.72,6.89,5.83c.81,3.72,1,7.34,3.92,10.15,2.12,2,1.8,5.79.39,8.85-1.82,3.94-6.89,5.7-12,4-3.5-1.17-5.32-4.16-5.35-8.67,0-1.88,0-3.76,0-5.64Z"/><path class="a03c1018-e8a1-45b6-9b69-646bd152dbd1" d="M202.47,202.21c0-8.72,2.1-12.41,7-12.21,4.5.19,6.72,4.05,6.73,11.73,0,8.08-2.23,12.13-6.81,12.29S202.48,210.36,202.47,202.21Z"/><path class="a03c1018-e8a1-45b6-9b69-646bd152dbd1" d="M173.74,202.09a40.88,40.88,0,0,1-.48,6.12c-.83,3.58-2.94,5.62-6,5.78-3.27.17-5.64-1.67-6.66-5.49a27.17,27.17,0,0,1-.34-11.64c.83-4.75,3.23-7.1,7.16-6.8s5.89,3.36,6.16,8.09c.08,1.3,0,2.62,0,3.93Z"/><path class="f312f583-1b6f-4f31-8fd3-0cfd6b3e9fe3" d="M168.06,282.05a1.5,1.5,0,0,0,0-3,1.5,1.5,0,0,0,0,3Z"/><path class="f312f583-1b6f-4f31-8fd3-0cfd6b3e9fe3" d="M152.41,283.64a8.54,8.54,0,0,1-.73.62l.3-.23c-.43.34-.88.66-1.32,1l2.51,1.46c.29-.89.61-1.76,1-2.62a1.12,1.12,0,0,0,0-.6,1.16,1.16,0,0,0-.18-.56,1.5,1.5,0,0,0-2-.53l-.3.23a1.49,1.49,0,0,0-.39.66c-.35.86-.67,1.74-1,2.62l-.06.4a1.29,1.29,0,0,0,.13.58,1.43,1.43,0,0,0,.62.71,1.66,1.66,0,0,0,.75.21,1.15,1.15,0,0,0,.58-.13,1.11,1.11,0,0,0,.48-.31L153,287l-.3.24a20.81,20.81,0,0,0,1.87-1.5,1.52,1.52,0,0,0,.44-1.06,1.5,1.5,0,0,0-.44-1.06,1.46,1.46,0,0,0-1.06-.44,1.56,1.56,0,0,0-1.06.44Z"/><path class="f312f583-1b6f-4f31-8fd3-0cfd6b3e9fe3" d="M158.68,281.27a32.68,32.68,0,0,1,9-10.89c1.48-1.14.15-3.66-1.52-2.59a52.05,52.05,0,0,0-17.44,19.1c-.79,1.46,1.15,3.08,2.36,1.82,2.9-3,4.74-6.83,6.82-10.42,1.75-3.05,3.85-6.66,7.47-7.67l-1.15-2.74c-11,7.42-15.34,22.38-13.19,35,.32,1.9,3.21,1.1,2.89-.79-1.9-11.24,2-25,11.81-31.64a1.51,1.51,0,0,0-1.16-2.75c-4,1.12-6.56,4.54-8.61,7.94-2.22,3.69-4,7.79-7,10.93l2.35,1.82a48.85,48.85,0,0,1,16.37-18l-1.52-2.59a36.18,36.18,0,0,0-10,12c-.91,1.71,1.68,3.23,2.59,1.52Z"/><path class="ab222a6e-c074-42ab-90c5-25c9553e249a" d="M124.89,419.17l3.29,1.06c4.48,1.44,9.1-1.89,10.27-7.39L162,302.08c1.17-5.5-1.54-11.18-6-12.62l-3.29-1.06c-4.48-1.43-9.1,1.89-10.27,7.39L118.87,406.55C117.7,412.05,120.41,417.73,124.89,419.17Z"/><path class="ab222a6e-c074-42ab-90c5-25c9553e249a" d="M262.69,407.71l3.06-1.82c4.17-2.47,5.93-8.68,3.92-13.8L229.19,289c-2-5.12-7.07-7.29-11.24-4.82L214.89,286c-4.17,2.48-5.94,8.69-3.93,13.81l40.49,103.11C253.46,408,258.52,410.18,262.69,407.71Z"/><path class="f312f583-1b6f-4f31-8fd3-0cfd6b3e9fe3" d="M156.16,263.22c-11.84,12.89-19,32-19.42,51.4a4.86,4.86,0,0,0,.42,2.56,3.32,3.32,0,0,0,1.73,1.28,67.34,67.34,0,0,0,18.31,5c1.75.21,3.65.31,5.11-.89s2.06-3.19,2.62-5.13a166.11,166.11,0,0,0,5.42-28c.44-4.19.7-8.59-.56-12.53-1.32-4.14-4.15-7.22-6.88-10.14a12.08,12.08,0,0,0-4.15-3.3,3.61,3.61,0,0,0-4.5,1.47"/><path class="f312f583-1b6f-4f31-8fd3-0cfd6b3e9fe3" d="M207.57,262.73a28,28,0,0,1,17.85,9.52,25,25,0,0,1,3.89,5.68,44.14,44.14,0,0,1,2.65,7.82l6.73,24.92a3.68,3.68,0,0,1,.1,2.38,2.62,2.62,0,0,1-1.07,1.09,211.52,211.52,0,0,1-18.13,11,3.89,3.89,0,0,1-2.69.71,4.27,4.27,0,0,1-2-1.56c-4.49-5.38-7.07-12.82-8.29-20.38s-1.2-15.34-1.17-23.05a27.73,27.73,0,0,1,.77-7.8,12.38,12.38,0,0,1,13.17-8.64"/><path class="b8216bd2-dde4-4ca2-8905-4e0a6294dd40" d="M198.3,301.65c-2.65-7.85-2.55-15.46.93-22.78,7.5-10.11,14.58-10.84,21.41-1.21,3.06,4.32,4.68,4.25,7.67-.05,5.63-8.09,11.88-8.69,18-2.9,5.25,5,7.38,14,5.44,22.76a26.27,26.27,0,0,1-4.41,9.37c-6.65,9.69-13.6,19-20.42,28.42-3.14,4.35-5.21.64-7.15-2.15C212.55,322.71,205.44,312.15,198.3,301.65Z"/><rect class="bbbeb2fd-1291-43af-97ba-cd00c74715d5" x="465.11" y="169.48" width="82.52" height="184.44" rx="15.24"/><rect class="af53cd86-b7a1-4aa2-88bd-5ab394ba867f" x="469.55" y="408.09" width="29.8" height="195.7" rx="14.9"/><rect class="af53cd86-b7a1-4aa2-88bd-5ab394ba867f" x="509.67" y="408.09" width="29.8" height="195.7" rx="14.9"/><rect class="af53cd86-b7a1-4aa2-88bd-5ab394ba867f" x="468.41" y="408.09" width="72.2" height="60.54" rx="15.01"/><rect class="a228cf7b-5b7d-41b1-add5-c404526390cc" x="467.26" y="263.08" width="77.93" height="152.06" rx="15.24"/><path class="a228cf7b-5b7d-41b1-add5-c404526390cc" d="M526.81,267c6.88,6.54,13.9,12.93,16.73,23.77a54.32,54.32,0,0,1,1.69,14.37q-.08,50.59,0,101.18c0,3.19.31,6.51-2.64,8.27a5.51,5.51,0,0,1-4.3,1.52c-16.46,0-32.93.08-49.4,0a6.42,6.42,0,0,1-3.13-.7c-2.35-1.69-3.21-4.52-3.24-7.57-.18-18.08-.54-36.17.16-54.23,1.36-4.42,2.9-1.74,4.18,0,4.2,5.68,8.73,11,13.15,16.38,4,4.9,4.33,4.78,8.57.47,5.76-5.86,11.28-12,15.73-19.46a13.44,13.44,0,0,0,.63-12.7,9.8,9.8,0,0,0-8.61-6.37c-3.25-.28-5.87,1.72-8.1,4.43s-4.41,2.82-6.71,0c-4.44-5.4-9.29-5.75-14.51-1.69-1.07.85-2.27,2.22-3.66.52-1.62-7.39-14.51-22.45-13.78-29.89,7.3-6.79,24.32-18.95,25.22-29.57.12-1.48-.72,7.18.63,6.54,2.05-.27,3.3,1.65,4.87,2.7,6,4,13.52-.74,14.31-9.18.35-3.68-.43-7.49.77-11.09a3.86,3.86,0,0,1,3.06-2.2C521.59,263,524.61,263.82,526.81,267Z"/><path class="a228cf7b-5b7d-41b1-add5-c404526390cc" d="M483.72,406c.11-18.2.07-36.4.08-54.6a88.39,88.39,0,0,1,.74-15.69c-1.69-7.81-.34-15.77-.77-23.64-4-5.42-7.58-11.07-8.51-18.73A111.27,111.27,0,0,1,474,278.31c0-.92.09-1.89.06-2.84-.78,1-1.57,1.92-2.35,2.89a5.1,5.1,0,0,1-.75,1.78,39.37,39.37,0,0,0-5.37,12.79,71.63,71.63,0,0,0-1,8.32q-.12,53.44-.1,106.88c0,2.79.35,5.25,2.74,6.46a13.74,13.74,0,0,0,5.66,1.23c4.24.2,8.66,1.74,12.71-1.26A19,19,0,0,1,483.72,406Z"/><path class="bbbeb2fd-1291-43af-97ba-cd00c74715d5" d="M508.81,135.46c12.7,3.51,24.1,9.23,31.71,21.73,3.2,5.27,4.79,11.19,6.45,17.12a2.16,2.16,0,0,1-.22,3.29,9.79,9.79,0,0,1-5.74,1.34c-22.8.07-45.6.12-68.4,0a14.05,14.05,0,0,1-3.53-.44c-4.57-1.6-4.58-5.31-3.57-9.45,4.28-17.54,20.77-32.46,37.62-34.06Z"/><path class="e2c9de15-c132-4103-8b62-0c31f81607e3" d="M422.88,309.49c-1.51-.26-2.37-1.62-2.94-3.16-4.23-11.4-11-19.56-20.17-25-4.09-2.43-4.07-5.44,0-7.89,9-5.38,15.63-13.4,20-24.53,2-5.19,4.54-5.09,6.67.26,4.32,10.88,10.8,18.83,19.67,24.12,4.33,2.58,4.32,5.67,0,8.24-8.87,5.29-15.47,13.17-19.64,24.15C425.78,307.54,425,309.42,422.88,309.49Z"/><path class="e2c9de15-c132-4103-8b62-0c31f81607e3" d="M597.74,116.42c1.6.24,2.43,1.61,3.06,3.12a34.65,34.65,0,0,0,12.67,15.7c3.72,2.54,3.75,5.24.06,7.75a36.47,36.47,0,0,0-12.74,15.63c-2,4.52-4.21,4.47-6.27-.17a35.52,35.52,0,0,0-12.77-15.56c-3.46-2.33-3.49-5.16-.06-7.46a34.71,34.71,0,0,0,13-16.06C595.32,117.84,596.22,116.56,597.74,116.42Z"/><path class="e2c9de15-c132-4103-8b62-0c31f81607e3" d="M612.55,342.65a4.55,4.55,0,0,1-2.41,3.81c-4.44,2.9-7.69,7.15-10.25,12.47-2,4.23-4,4.19-6.06-.07A31.54,31.54,0,0,0,584,346.64c-3.68-2.69-3.74-5.22-.15-7.82a30.77,30.77,0,0,0,9.9-12.14c2-4.21,4.17-4.3,6.13-.27,2.66,5.46,6,9.82,10.63,12.79A4,4,0,0,1,612.55,342.65Z"/><path class="b83c16a5-8402-420e-b51a-eae632859b49" d="M486.51,415.89l-15.58-.05c-1.25-.36-2.7.24-3.69-1.25l18.37,0,57,.05a8.08,8.08,0,0,1-.2.85q-24.74.14-49.46.29C490.78,415.76,488.64,415.84,486.51,415.89Z"/><path class="ac013350-a80c-4901-82fd-0560054290f8" d="M549.79,161.14l-1.06,0c-1.58.34-2.35-.72-2.77-2.41,0-.71,0-1.42,0-2.12A9.81,9.81,0,0,1,549.79,161.14Z"/><path class="ebaaf00a-e3d1-4f48-b28a-71fd9e23f4a2" d="M463.53,158.8,461,161.19l-1.09-.05C462.26,157.21,462.39,157.12,463.53,158.8Z"/><path class="ab222a6e-c074-42ab-90c5-25c9553e249a" d="M546.19,181.5c-.55,4.31.8,6.06,4.45,5.59,1.85-.23,3.94-.8,5.63,1-1.39,1.91-3.31,1.69-5.08,1.73-2.74.06-3.72,1.78-3.71,4.93,0,5.21.16,10.43-.05,15.63-.16,4.29.9,6.81,4.7,6.81a2.73,2.73,0,0,1,2.34,1.5,2.85,2.85,0,0,1-3,.93c-4.31-1-5.68,1.9-6.67,6.46-3.79,17.5-12.65,29.84-26,37.36l-2.9,1.32c-2.3,3.18-5.23,2.8-8.21,2.22-18.6-5.87-29-21.37-33.78-43.46-.88-4-.58-8.18-.58-12.29,0-8-.08-16.09,0-24.13.05-3.6,1.12-5.78,4.42-5.13,2.52.5,4.79-.44,7-1.89,8.85-1,17.71-.36,26.56-.47,9.47-.13,18.94-.08,28.41,0C542,179.65,544.35,179.2,546.19,181.5Z"/><path class="bbbf38da-6c5e-4660-bf77-a2a79ffebefa" d="M507.62,265.89a18.89,18.89,0,0,0,8.27-1.11c0,1.86-.13,3.75,0,5.59.62,7.35-1,13.12-6.78,16.65s-9.51-.43-13.48-4.31c-.4-6,.75-12.06-.77-18,2.67-1.52,5.33-.43,7.88.37A16,16,0,0,0,507.62,265.89Z"/><path class="ac1e52ca-bb78-423b-82f5-82f707fbbb30" d="M554.47,218.71c-8.33-.42-8.33-.42-8.33-10.54,0-4.85.25-9.74-.07-14.56s1.29-6,4.73-5.51a41.59,41.59,0,0,0,5.47,0c6.88,3.07,9.75,8.39,9.18,17C565,212.23,561,217.09,554.47,218.71Z"/><path class="b27dd22e-763a-4e45-a7c3-5095b0bb880f" d="M481.91,181.41l1.7.36a5.93,5.93,0,0,1-1.68.71c-7.35.65-7.35.64-7.35,9.5,0,7.85-.07,15.71,0,23.57.14,12.26,4.27,22.53,10.24,32.11s14,14.4,22.77,18.23c-4.4,2.11-8.52-.43-12.74-1.15a40.43,40.43,0,0,1-17.7-12.91,9,9,0,0,0-2.31-1.54c-2.11-4.29-4.23-8.58-6.31-12.89A36.79,36.79,0,0,1,465,225.34c-.49-4.54-2-6.69-5.84-5.8a2.92,2.92,0,0,1-3-.84c6.08-1.58,6.4-6.89,6.18-13.21-.21-6.05-.72-12.19.37-18.24,1.39-1.66.64-3.8.85-5.72Z"/><path class="f4c8ba02-b348-4411-b293-3cdc5395a960" d="M462.71,187.25c1.89,9.72.53,19.57.76,29.35,0,1.67-1.2,1.92-2.32,2l-5,.14c-7.33-.83-11.84-6.54-11.94-15.11-.1-8.75,4.86-15.55,12.13-16.38A50,50,0,0,1,462.71,187.25Z"/><path class="a5645840-7490-4bb2-a844-93e4887a8919" d="M504.71,254.7a20.79,20.79,0,0,1-15.35-7.3c-3.3-3.66-3.86-8.28-1.58-11.94,2.42-3.87,6.06-4.73,9.67-1.41,5.18,4.76,9.85,4.56,15-.13,3.55-3.25,7.36-2.32,9.59,1.76,2.33,4.27,1.47,8.19-1.46,11.5A20.91,20.91,0,0,1,504.71,254.7Z"/><path class="a5645840-7490-4bb2-a844-93e4887a8919" d="M497.4,215.28c0-2.44-.16-4.89,0-7.31.35-4.37,2.7-6.75,6-7.19s6,1.73,6.89,5.84c.8,3.72,1,7.34,3.91,10.14,2.13,2.06,1.81,5.79.4,8.86-1.82,3.94-6.9,5.69-12,4-3.5-1.18-5.32-4.16-5.35-8.68,0-1.88,0-3.75,0-5.63Z"/><path class="a03c1018-e8a1-45b6-9b69-646bd152dbd1" d="M519.27,205.71c0-8.73,2.11-12.42,7-12.21,4.5.18,6.71,4.05,6.72,11.73,0,8.07-2.23,12.12-6.8,12.28S519.29,213.86,519.27,205.71Z"/><path class="a03c1018-e8a1-45b6-9b69-646bd152dbd1" d="M490.55,205.59a40.84,40.84,0,0,1-.49,6.11c-.83,3.59-2.93,5.62-6,5.78-3.26.17-5.64-1.67-6.65-5.49a27.13,27.13,0,0,1-.34-11.63c.82-4.76,3.23-7.11,7.15-6.81s5.9,3.37,6.17,8.1c.07,1.3,0,2.61,0,3.92Z"/><path class="f312f583-1b6f-4f31-8fd3-0cfd6b3e9fe3" d="M484.86,285.54a1.5,1.5,0,0,0,0-3,1.5,1.5,0,0,0,0,3Z"/><path class="f312f583-1b6f-4f31-8fd3-0cfd6b3e9fe3" d="M469.22,287.13a8.67,8.67,0,0,1-.73.63l.3-.24c-.44.34-.89.67-1.32,1L470,290q.43-1.32,1-2.61a1.22,1.22,0,0,0,0-.6,1.12,1.12,0,0,0-.18-.56,1.52,1.52,0,0,0-.9-.69,1.49,1.49,0,0,0-1.15.15l-.31.24a1.45,1.45,0,0,0-.38.66c-.36.86-.68,1.73-1,2.61l-.05.4a1.15,1.15,0,0,0,.13.58,1.44,1.44,0,0,0,.61.72,1.83,1.83,0,0,0,.76.2,1.06,1.06,0,0,0,.58-.13,1.14,1.14,0,0,0,.48-.31l.18-.13-.31.23a19.62,19.62,0,0,0,1.88-1.5,1.54,1.54,0,0,0,.44-1.06,1.56,1.56,0,0,0-.44-1.06,1.52,1.52,0,0,0-1.06-.44,1.61,1.61,0,0,0-1.06.44Z"/><path class="ab222a6e-c074-42ab-90c5-25c9553e249a" d="M441.7,422.67l3.28,1.05c4.48,1.44,9.1-1.89,10.28-7.39l23.56-110.76c1.17-5.5-1.54-11.18-6-12.62l-3.29-1.05c-4.48-1.44-9.1,1.89-10.27,7.39L435.68,410.05C434.51,415.55,437.22,421.23,441.7,422.67Z"/><path class="ab222a6e-c074-42ab-90c5-25c9553e249a" d="M579.49,411.2l3.06-1.81c4.17-2.47,5.94-8.69,3.93-13.81L546,292.47c-2-5.12-7.07-7.29-11.24-4.82l-3.06,1.81c-4.17,2.47-5.93,8.68-3.92,13.81l40.48,103.11C570.26,411.5,575.32,413.67,579.49,411.2Z"/><path class="a228cf7b-5b7d-41b1-add5-c404526390cc" d="M473,266.72c-11.84,12.89-19.05,32-19.43,51.39a5,5,0,0,0,.42,2.56A3.36,3.36,0,0,0,455.7,322,67.68,67.68,0,0,0,474,326.9c1.75.21,3.65.31,5.11-.89s2.06-3.18,2.61-5.12a164.08,164.08,0,0,0,5.42-28c.44-4.19.71-8.59-.55-12.52-1.32-4.14-4.16-7.22-6.89-10.14a12.08,12.08,0,0,0-4.14-3.31,3.63,3.63,0,0,0-4.5,1.48"/><path class="a228cf7b-5b7d-41b1-add5-c404526390cc" d="M524.38,268a28.2,28.2,0,0,1,17.85,9.25,24.52,24.52,0,0,1,3.89,5.51,42,42,0,0,1,2.64,7.61l6.74,24.2a3.54,3.54,0,0,1,.1,2.31,2.69,2.69,0,0,1-1.07,1.07q-8.87,5.81-18.13,10.69a4,4,0,0,1-2.69.68,4.11,4.11,0,0,1-2-1.51c-4.5-5.23-7.07-12.45-8.3-19.8s-1.19-14.89-1.16-22.38a26.2,26.2,0,0,1,.77-7.58,12.38,12.38,0,0,1,13.16-8.4"/><path class="b8216bd2-dde4-4ca2-8905-4e0a6294dd40" d="M509.37,306.55c-2.64-7.84-2.55-15.45.93-22.78,7.5-10.1,14.58-10.84,21.41-1.2,3.07,4.32,4.69,4.24,7.68-.06,5.62-8.08,11.88-8.69,18-2.89,5.25,5,7.37,14,5.44,22.75a26.49,26.49,0,0,1-4.41,9.38c-6.66,9.68-13.6,19-20.42,28.42-3.14,4.35-5.22.63-7.15-2.16C523.62,327.62,516.52,317.05,509.37,306.55Z"/><path class="bbbeb2fd-1291-43af-97ba-cd00c74715d5" d="M519.38,173.18l-22.75,9.87c-11.75,5.1-23.6,10.26-34.25,18.2a87.46,87.46,0,0,1,2-24.82c.8-3.51,2-7.18,4.46-9.17a12.08,12.08,0,0,1,5.78-2.08L504.39,160a28.44,28.44,0,0,1,9.09-.58,15.91,15.91,0,0,1,8.61,4.42,4.09,4.09,0,0,1,1.53,3.3,3.86,3.86,0,0,1-2,2.51,71.08,71.08,0,0,1-12.25,6.64"/><path class="bbbeb2fd-1291-43af-97ba-cd00c74715d5" d="M512.89,157.64c10.05-.88,20.34,2.77,28.42,10.08a15.31,15.31,0,0,1,3.77,4.7A21,21,0,0,1,546.6,179a168.2,168.2,0,0,1,.7,29.09c-.08,1.36-.4,3-1.5,3.34s-2-1-2.54-2.17c-2-4-3.59-8.29-5.75-12.18A52.46,52.46,0,0,0,516.74,177c-8.16-4.55-16.92-7.24-25.62-9.92"/></g></svg>